<?xml version="1.0" encoding="UTF-8" standalone="no"?>
<!DOCTYPE svg PUBLIC "-//W3C//DTD SVG 1.1//EN"
 "http://www.w3.org/Graphics/SVG/1.1/DTD/svg11.dtd">
<!-- Generated by graphviz version 2.38.0 (20140413.2041)
 -->
<!-- Title: src/Template.cpp Pages: 1 -->
<svg width="172pt" height="140pt"
 viewBox="0.00 0.00 171.50 140.00" xmlns="http://www.w3.org/2000/svg" xmlns:xlink="http://www.w3.org/1999/xlink">
<g id="graph0" class="graph" transform="scale(1 1) rotate(0) translate(4 136)">
<title>src/Template.cpp</title>
<polygon fill="white" stroke="none" points="-4,4 -4,-136 167.5,-136 167.5,4 -4,4"/>
<!-- Node0 -->
<g id="node1" class="node"><title>Node0</title>
<polygon fill="#bfbfbf" stroke="black" points="0,-112.5 0,-131.5 92,-131.5 92,-112.5 0,-112.5"/>
<text text-anchor="middle" x="46" y="-119.5" font-family="Helvetica,sans-Serif" font-size="10.00">src/Template.cpp</text>
</g>
<!-- Node1 -->
<g id="node2" class="node"><title>Node1</title>
<polygon fill="white" stroke="#bfbfbf" points="23,-0.5 23,-19.5 69,-19.5 69,-0.5 23,-0.5"/>
<text text-anchor="middle" x="46" y="-7.5" font-family="Helvetica,sans-Serif" font-size="10.00">cstdint</text>
</g>
<!-- Node0&#45;&gt;Node1 -->
<g id="edge1" class="edge"><title>Node0&#45;&gt;Node1</title>
<path fill="none" stroke="midnightblue" d="M38.3271,-112.459C31.2211,-103.927 21.1461,-90.0875 17,-76 11.9543,-58.8559 21.8652,-40.3373 31.444,-27.4689"/>
<polygon fill="midnightblue" stroke="midnightblue" points="34.2787,-29.5294 37.8344,-19.5491 28.8309,-25.1337 34.2787,-29.5294"/>
</g>
<!-- Node2 -->
<g id="node3" class="node"><title>Node2</title>
<g id="a_node3"><a xlink:href="Template_8hpp.html" target="_top" xlink:title="Contains the Template class. ">
<polygon fill="white" stroke="black" points="26.5,-56.5 26.5,-75.5 163.5,-75.5 163.5,-56.5 26.5,-56.5"/>
<text text-anchor="middle" x="95" y="-63.5" font-family="Helvetica,sans-Serif" font-size="10.00">CppTemplate/Template.hpp</text>
</a>
</g>
</g>
<!-- Node0&#45;&gt;Node2 -->
<g id="edge2" class="edge"><title>Node0&#45;&gt;Node2</title>
<path fill="none" stroke="midnightblue" d="M54.0914,-112.083C61.1554,-104.298 71.5876,-92.8015 80.1489,-83.3665"/>
<polygon fill="midnightblue" stroke="midnightblue" points="82.9312,-85.5087 87.0592,-75.7511 77.7473,-80.8047 82.9312,-85.5087"/>
</g>
<!-- Node2&#45;&gt;Node1 -->
<g id="edge3" class="edge"><title>Node2&#45;&gt;Node1</title>
<path fill="none" stroke="midnightblue" d="M86.9086,-56.083C79.8446,-48.2982 69.4124,-36.8015 60.8511,-27.3665"/>
<polygon fill="midnightblue" stroke="midnightblue" points="63.2527,-24.8047 53.9408,-19.7511 58.0688,-29.5087 63.2527,-24.8047"/>
</g>
</g>
</svg>
